<?xml version="1.0" encoding="UTF-8" standalone="no"?>
<!DOCTYPE svg PUBLIC "-//W3C//DTD SVG 1.1//EN" "http://www.w3.org/Graphics/SVG/1.1/DTD/svg11.dtd">
<svg width="100%" height="100%" viewBox="0 0 1145 327" version="1.1" xmlns="http://www.w3.org/2000/svg" xmlns:xlink="http://www.w3.org/1999/xlink" xml:space="preserve" xmlns:serif="http://www.serif.com/" style="fill-rule:evenodd;clip-rule:evenodd;stroke-linejoin:round;stroke-miterlimit:2;">
    <g transform="matrix(1,0,0,1,-2053.40635,-294.572793)">
        <g transform="matrix(1.379722,0,0,1.379722,-944.609984,-118.614636)">
            <g transform="matrix(4.245613,0,0,4.245613,-742.40267,-1222.33038)">
                <g transform="matrix(12,0,0,12,847.595613,409.243625)">
                </g>
                <text x="757.188px" y="409.244px" style="font-family:'Arial-BoldMT', 'Arial', sans-serif;font-weight:700;font-size:12px;fill:rgb(8,102,250);">D<tspan x="774.734px 791.618px 808.502px 820.716px 838.93px " y="409.244px 409.244px 409.244px 409.244px 409.244px ">ESIGN</tspan></text>
            </g>
            <g transform="matrix(1,0,0,1,1774.334254,168.758428)">
                <rect x="398.579" y="281.691" width="85.921" height="85.921" style="fill:rgb(8,102,250);"/>
            </g>
            <g transform="matrix(17.93214,0,0,17.93214,-15297.710232,-666.78153)">
                <g transform="matrix(12,0,0,12,1021.593054,62.724332)">
                </g>
                <text x="989.993px" y="62.724px" style="font-family:'Verdana', sans-serif;font-size:12px;fill:rgb(15,24,37);">Doug</text>
            </g>
            <g transform="matrix(1,0,0,1,1767.996618,168.003124)">
                <path d="M453.952,249.918L453.952,131.468L517.465,131.468C519.31,131.468 521.145,131.511 522.969,131.594C585.793,134.474 635.915,186.389 635.915,249.918C635.915,313.447 585.793,365.362 522.969,368.241L522.969,249.918L453.952,249.918Z" style="fill:rgb(15,24,37);"/>
            </g>
        </g>
    </g>
</svg>
