<?xml version="1.0" encoding="UTF-8" standalone="no"?>
<!DOCTYPE svg PUBLIC "-//W3C//DTD SVG 1.1//EN" "http://www.w3.org/Graphics/SVG/1.1/DTD/svg11.dtd">
<svg width="100%" height="100%" viewBox="0 0 600 600" version="1.1" xmlns="http://www.w3.org/2000/svg" xmlns:xlink="http://www.w3.org/1999/xlink" xml:space="preserve" xmlns:serif="http://www.serif.com/" style="fill-rule:evenodd;clip-rule:evenodd;stroke-linejoin:round;stroke-miterlimit:2;">
    <g transform="matrix(1,0,0,1,-1767,0)">
        <g id="Prancheta3" transform="matrix(0.349447,0,0,0.655022,1149.527665,0)">
            <rect x="1767" y="0" width="1717" height="916" style="fill:none;"/>
            <clipPath id="_clip1">
                <rect x="1767" y="0" width="1717" height="916"/>
            </clipPath>
            <g clip-path="url(#_clip1)">
                <g transform="matrix(0.965519,0,0,0.965519,60.927289,0)">
                    <g transform="matrix(2.861667,0,0,1.526667,-3289.565,0)">
                        <circle cx="2077.714" cy="310.714" r="310.714" style="fill:white;"/>
                    </g>
                    <g transform="matrix(4.864805,0,0,2.595318,-8422.841924,-634.923291)">
                        <g transform="matrix(1,0,0,1,1774.334254,168.758428)">
                            <rect x="398.579" y="281.691" width="85.921" height="85.921" style="fill:rgb(8,102,250);"/>
                        </g>
                        <g transform="matrix(1,0,0,1,1767.996618,168.003124)">
                            <path d="M453.952,249.918L453.952,131.468L517.465,131.468C519.31,131.468 521.145,131.511 522.969,131.594C585.793,134.474 635.915,186.389 635.915,249.918C635.915,313.447 585.793,365.362 522.969,368.241L522.969,249.918L453.952,249.918Z" style="fill:rgb(15,24,37);"/>
                        </g>
                    </g>
                </g>
            </g>
        </g>
    </g>
</svg>
